<?xml version="1.0" standalone="no"?>
<!DOCTYPE svg PUBLIC "-//W3C//DTD SVG 20010904//EN"
 "http://www.w3.org/TR/2001/REC-SVG-20010904/DTD/svg10.dtd">
<svg version="1.0" xmlns="http://www.w3.org/2000/svg"
 width="260.000000pt" height="260.000000pt" viewBox="0 0 260.000000 260.000000"
 preserveAspectRatio="xMidYMid meet">
<metadata>
Created by potrace 1.14, written by Peter Selinger 2001-2017
</metadata>
<g transform="translate(0.000000,260.000000) scale(0.100000,-0.100000)"
fill="#000000" stroke="none">
<path d="M1200 2591 c0 -6 8 -8 18 -5 16 5 16 5 -1 -6 -13 -9 -15 -15 -7 -30
8 -15 7 -18 -3 -14 -8 3 -14 15 -13 26 0 12 -5 22 -12 24 -7 1 -8 0 -2 -3 7
-3 4 -10 -7 -19 -17 -13 -17 -14 2 -7 11 3 17 3 13 -2 -4 -4 -3 -14 2 -21 8
-9 6 -12 -7 -10 -10 0 -17 -4 -16 -11 2 -7 -4 -10 -12 -6 -13 5 -13 7 2 19 17
13 17 14 -1 7 -15 -5 -17 -3 -11 8 5 8 5 11 -1 6 -5 -5 -10 -13 -10 -18 -1 -5
-2 -14 -3 -20 0 -5 -5 -8 -10 -5 -4 3 -13 -6 -20 -20 -7 -16 -17 -24 -26 -20
-8 3 -17 0 -21 -6 -4 -6 -3 -8 3 -5 6 4 11 -3 11 -17 0 -18 -5 -22 -24 -20
-13 1 -28 -4 -35 -12 -6 -8 -8 -14 -3 -14 5 0 3 -4 -3 -8 -7 -5 -14 -20 -15
-34 -1 -15 -6 -24 -11 -21 -4 2 -5 14 -1 25 5 18 4 19 -9 7 -10 -10 -12 -19
-6 -31 6 -11 5 -18 -4 -21 -9 -4 -8 -8 3 -17 13 -10 13 -11 0 -7 -8 2 -15 14
-15 27 0 13 -6 24 -13 26 -7 1 -8 0 -2 -3 16 -8 12 -23 -7 -23 -11 0 -14 -3
-7 -8 6 -4 11 -15 11 -24 0 -10 -2 -16 -5 -13 -8 7 -43 -15 -38 -24 3 -5 -3
-16 -14 -26 -11 -10 -17 -22 -13 -28 3 -6 1 -7 -6 -3 -6 4 -8 12 -5 18 5 7 2
8 -5 4 -7 -5 -10 -15 -6 -24 5 -13 2 -12 -15 3 -11 10 -23 15 -27 12 -3 -4 -1
-7 6 -7 8 0 11 -6 7 -16 -3 -8 -2 -12 4 -9 19 11 10 -4 -22 -42 -18 -20 -28
-34 -23 -31 6 3 19 2 30 -3 18 -7 18 -8 -5 -9 -14 -1 -20 -4 -14 -6 6 -3 10
-18 8 -34 -2 -18 1 -30 8 -30 7 0 3 -6 -7 -14 -18 -13 -18 -14 8 -9 15 3 24
10 20 16 -3 6 -1 7 6 3 9 -6 9 -11 -1 -24 -11 -13 -11 -15 3 -10 9 3 22 2 30
-4 11 -8 10 -9 -3 -4 -10 3 -18 1 -18 -4 0 -6 6 -10 13 -10 8 0 7 -4 -3 -10
-9 -6 -10 -10 -3 -10 6 0 15 5 18 11 7 11 42 -30 37 -43 -1 -5 3 -8 9 -8 6 0
9 -6 6 -14 -4 -10 2 -13 23 -11 23 2 27 -1 22 -19 -3 -11 -7 -15 -10 -8 -2 6
-11 12 -20 12 -13 0 -12 -3 4 -15 17 -12 21 -12 33 3 13 16 13 15 6 -3 -12
-35 -14 -56 -4 -50 5 4 7 10 4 15 -3 5 3 14 14 20 16 8 22 7 31 -9 8 -16 6
-22 -7 -30 -16 -9 -16 -10 5 -11 12 0 22 -6 22 -14 0 -9 -7 -12 -20 -9 -11 3
-20 1 -20 -4 0 -6 11 -9 25 -7 17 1 29 -4 36 -17 8 -15 5 -24 -16 -43 -18 -17
-22 -26 -14 -32 7 -4 9 -3 6 3 -4 6 2 13 14 16 16 4 18 3 9 -8 -7 -8 -9 -19
-6 -24 4 -5 1 -13 -5 -16 -5 -4 -8 -13 -5 -21 3 -8 0 -11 -10 -7 -13 5 -13 8
2 24 10 11 12 19 6 19 -16 0 -33 -35 -22 -46 12 -12 -50 -11 -70 1 -13 8 -13
7 -1 -8 7 -9 17 -14 22 -11 5 3 9 0 9 -5 0 -14 -6 -14 -33 1 -20 10 -21 10 -8
-6 12 -14 12 -16 -3 -10 -9 3 -16 10 -16 14 0 4 -7 11 -16 14 -15 6 -14 3 1
-21 18 -27 18 -28 -1 -12 -10 9 -24 14 -31 12 -6 -2 -14 1 -18 6 -4 7 1 9 12
5 15 -5 15 -4 3 5 -8 6 -28 8 -45 6 -16 -2 -24 -2 -17 1 6 3 12 12 12 20 0 9
5 12 10 9 6 -4 8 -11 5 -16 -3 -5 1 -6 10 -3 14 6 14 8 -2 20 -15 11 -20 11
-29 -2 -10 -13 -12 -13 -17 1 -4 9 -13 12 -24 9 -12 -4 -10 0 6 11 21 16 22
19 7 27 -9 5 -13 14 -10 20 4 7 2 8 -5 4 -9 -6 -9 -11 -1 -21 8 -10 8 -15 -1
-21 -8 -4 -9 -3 -5 4 4 7 -3 16 -18 23 -16 8 -23 18 -21 31 4 16 2 18 -10 8
-18 -15 -19 -6 -4 22 8 15 8 19 0 14 -6 -4 -11 -2 -11 3 0 6 -5 11 -11 11 -8
0 -8 -4 0 -14 8 -10 9 -16 1 -21 -6 -4 -9 -1 -8 7 2 7 -3 12 -10 10 -8 -1 -11
6 -8 22 5 27 -19 30 -35 5 -12 -19 -12 -3 0 20 8 13 5 17 -12 18 -17 2 -19 0
-7 -7 9 -6 10 -10 3 -10 -23 0 -24 20 -1 29 32 13 6 13 -29 0 -23 -8 -26 -8
-15 2 15 16 16 29 1 29 -5 0 -7 -5 -3 -12 5 -8 2 -9 -9 -5 -9 3 -19 1 -23 -5
-4 -7 -9 -6 -15 3 -6 10 -9 11 -9 2 0 -7 -8 -13 -17 -13 -15 0 -16 -2 -3 -10
9 -6 10 -10 3 -10 -19 0 -26 20 -9 26 9 3 16 11 16 17 0 5 -8 3 -18 -6 -10
-10 -21 -14 -25 -11 -14 15 -27 -8 -16 -29 l12 -22 -23 20 -23 20 12 -22 c9
-18 8 -24 -6 -32 -11 -6 -13 -11 -5 -11 7 0 10 -5 6 -11 -4 -8 -9 -7 -14 2
-11 16 -1 41 13 32 6 -3 7 -1 3 5 -4 6 -13 9 -21 6 -8 -4 -12 -11 -9 -16 4 -6
-2 -8 -17 -3 -18 5 -20 4 -9 -4 20 -14 22 -51 3 -44 -12 5 -12 7 -1 14 9 6 9
9 1 9 -15 0 -32 -31 -26 -47 3 -7 0 -13 -5 -13 -6 0 -13 8 -16 18 -3 9 -3 0
-1 -21 1 -20 -1 -40 -6 -43 -5 -3 -8 0 -7 6 2 7 -7 14 -20 16 -17 3 -21 1 -15
-8 14 -23 11 -34 -11 -36 -16 -1 -18 1 -6 8 13 8 13 11 1 22 -11 10 -12 10 -7
0 5 -8 -4 -18 -26 -28 -25 -11 -27 -14 -8 -10 14 3 32 0 40 -5 12 -9 12 -10
-4 -5 -13 5 -17 2 -12 -9 3 -8 0 -14 -6 -12 -7 1 -12 -3 -13 -10 0 -6 -4 -15
-9 -20 -5 -5 -6 -3 -2 5 4 7 2 12 -5 12 -7 0 -4 7 7 16 18 14 17 14 -6 2 -14
-7 -29 -11 -33 -10 -5 1 -6 -2 -2 -8 3 -6 10 -8 14 -6 4 3 7 -6 7 -19 0 -13
-4 -21 -8 -19 -4 3 -8 -1 -8 -8 0 -8 -4 -7 -11 4 -5 10 -16 15 -25 11 -15 -5
-15 -7 0 -15 9 -5 16 -14 16 -21 0 -8 -3 -8 -8 -2 -4 6 -14 11 -23 13 -12 2
-16 -4 -13 -23 1 -16 -3 -28 -12 -32 -8 -3 -11 -10 -7 -16 3 -6 1 -7 -5 -3 -6
4 -9 13 -6 21 4 8 10 13 14 10 10 -6 7 22 -4 32 -4 4 -6 3 -5 -2 2 -6 -2 -20
-9 -33 -7 -12 -11 -26 -8 -31 3 -5 -1 -14 -9 -21 -14 -11 -19 -7 -16 13 0 4
-4 7 -10 7 -5 0 -7 5 -3 12 4 6 3 9 -2 5 -5 -3 -11 -52 -12 -110 l-3 -105 31
-34 c18 -18 29 -27 25 -20 -3 6 -2 12 4 12 6 0 8 6 5 14 -3 8 -1 17 5 21 7 4
8 0 4 -11 -4 -11 -3 -15 4 -11 12 8 12 -18 0 -29 -17 -18 -5 -25 14 -8 15 14
20 15 17 4 -2 -9 3 -14 11 -12 12 3 12 1 0 -14 -12 -16 -12 -17 3 -11 10 3 20
2 23 -4 4 -5 11 -6 17 -3 6 4 8 2 4 -4 -3 -6 -3 -13 2 -15 4 -3 7 -21 6 -41
-1 -20 2 -34 6 -31 5 3 15 -1 23 -10 13 -13 16 -13 21 1 4 10 2 13 -6 8 -6 -4
-8 -3 -5 3 4 6 -1 10 -10 9 -9 0 -18 5 -20 12 -3 6 0 12 7 12 6 0 8 -5 5 -10
-3 -6 -1 -10 4 -10 6 0 11 4 11 10 0 5 12 -3 27 -18 15 -15 27 -31 25 -35 -1
-4 5 -10 13 -13 8 -3 13 -9 10 -14 -2 -4 3 -16 11 -26 9 -10 12 -13 8 -5 -5
10 -3 12 6 6 10 -6 9 -11 -5 -22 -11 -7 -15 -13 -9 -13 14 0 30 14 36 30 3 8
4 -6 3 -33 -2 -26 0 -45 5 -42 5 3 15 -2 23 -10 18 -17 27 -19 27 -6 0 5 -10
13 -21 16 -17 6 -19 9 -8 17 11 8 10 9 -3 4 -10 -3 -18 -1 -18 4 0 17 28 11
43 -10 8 -11 17 -17 21 -13 4 4 4 0 1 -9 -4 -9 -2 -19 4 -23 6 -3 11 2 12 12
0 14 2 15 6 3 3 -8 10 -18 15 -21 5 -3 2 -9 -7 -12 -9 -4 -14 -3 -11 1 2 4 -4
8 -15 8 -24 0 -10 -15 21 -21 13 -3 28 1 33 8 5 7 5 2 1 -13 -6 -22 -5 -23 9
-12 12 10 17 10 23 1 5 -8 3 -9 -6 -4 -9 5 -11 4 -6 -4 6 -9 11 -9 22 0 8 6
14 8 14 4 0 -4 8 -1 17 6 10 8 14 9 10 2 -4 -6 -3 -15 3 -18 6 -4 10 -3 9 2
-1 4 1 16 6 27 7 17 9 17 21 -5 7 -13 13 -18 14 -10 0 10 3 11 14 2 11 -9 16
-9 22 0 4 7 3 9 -4 5 -6 -3 -15 2 -21 11 -7 13 -10 14 -11 4 0 -8 -3 -12 -6
-8 -3 3 -3 11 1 17 5 8 10 8 20 0 9 -7 15 -7 19 -1 4 5 -2 14 -11 20 -10 5
-15 13 -11 16 4 4 14 0 23 -9 22 -22 28 -20 15 3 -11 22 4 40 16 20 5 -8 3 -9
-6 -4 -9 5 -11 4 -6 -4 11 -17 36 5 36 30 0 11 4 19 10 19 5 0 7 -6 4 -13 -3
-8 3 -20 13 -28 16 -13 17 -12 4 4 -12 15 -12 19 5 32 14 10 15 13 4 12 -8 -1
-15 3 -15 8 0 6 3 9 8 7 7 -2 11 14 8 31 -1 5 3 6 9 2 6 -3 8 -11 5 -16 -4 -5
-1 -9 4 -9 6 0 11 5 11 10 0 6 7 10 15 10 8 0 15 5 15 11 0 5 -4 8 -9 5 -13
-8 -8 19 7 36 6 8 9 18 5 21 -3 4 -2 7 4 7 5 0 15 -10 21 -22 6 -13 11 -17 11
-10 1 7 6 10 13 6 7 -4 8 -3 4 5 -4 6 0 14 8 17 9 3 16 11 16 16 0 7 -5 6 -13
-1 -10 -8 -14 -7 -14 4 0 8 4 12 8 9 11 -6 30 31 21 41 -4 5 -1 5 6 1 7 -4 12
-2 12 6 0 9 3 9 8 2 4 -6 14 -11 23 -11 11 0 14 7 11 24 -2 13 1 23 7 23 6 0
10 -3 10 -8 -3 -19 2 -32 13 -32 9 0 9 3 0 12 -9 9 -7 14 6 25 15 11 15 12 1
7 -10 -3 -20 1 -25 8 -4 7 -4 10 1 6 4 -4 16 -3 26 3 13 6 19 6 19 -1 0 -5 5
-10 11 -10 8 0 8 4 0 14 -7 8 -22 13 -33 11 -11 -3 -18 -1 -14 2 8 9 34 15 67
16 15 1 26 7 26 17 1 8 3 22 5 30 2 8 -3 14 -9 13 -7 -2 -13 2 -13 8 0 6 9 8
21 4 16 -5 19 -4 14 5 -6 9 -4 11 5 5 10 -6 12 -4 7 7 -4 12 0 15 19 13 17 -2
24 2 20 11 -3 9 0 11 11 7 9 -4 14 -2 11 3 -3 5 3 17 14 27 10 9 18 12 18 7 0
-5 0 -12 0 -15 0 -3 -2 -4 -5 -2 -5 3 -35 -37 -30 -41 2 -2 14 5 26 17 13 12
31 22 41 22 38 3 41 4 45 19 4 12 3 12 -5 1 -7 -9 -12 -10 -16 -2 -4 6 -4 11
1 11 4 0 1 5 -7 11 -11 8 -9 8 10 3 14 -4 33 -8 43 -8 9 0 17 -5 17 -10 0 -5
9 1 20 14 11 13 20 18 20 11 0 -7 4 -10 8 -7 13 8 39 -13 27 -21 -13 -9 -13
-28 -2 -40 5 -4 8 -3 7 2 -1 6 -2 17 -1 25 1 13 2 13 11 0 6 -10 10 -11 10 -2
0 6 7 12 16 12 9 0 12 5 8 12 -5 7 -3 8 5 3 9 -5 6 -14 -11 -33 -13 -15 -15
-20 -5 -13 9 8 21 11 24 7 4 -4 1 -12 -7 -17 -13 -9 -13 -10 0 -6 8 2 14 11
14 20 -1 9 4 13 13 10 9 -4 11 -13 7 -27 -6 -18 -5 -19 10 -7 12 10 19 11 30
2 9 -8 15 -8 18 -2 2 7 8 7 18 1 13 -8 12 -10 -2 -10 -10 0 -18 -7 -18 -15 0
-8 5 -15 11 -15 5 0 7 5 3 12 -4 7 -3 8 5 4 6 -4 9 -12 6 -17 -4 -5 1 -9 9 -9
10 0 13 -6 9 -17 -4 -11 -3 -14 5 -9 7 4 12 3 12 -3 0 -5 9 -8 20 -6 14 3 18
0 13 -8 -17 -27 -11 -40 8 -17 15 19 18 20 10 4 -8 -17 -9 -36 -2 -62 1 -1 9
2 19 7 12 6 23 5 36 -5 10 -7 24 -11 30 -7 6 3 8 3 4 -2 -11 -12 11 -47 25
-39 7 4 6 1 -2 -7 -9 -9 -15 -10 -18 -3 -2 6 -11 20 -19 30 -9 10 -13 13 -9 7
4 -9 1 -11 -9 -7 -9 3 -16 1 -16 -5 0 -6 3 -10 8 -10 18 3 33 -2 28 -10 -3 -4
6 -13 19 -19 17 -8 23 -17 20 -32 -2 -11 -1 -18 4 -16 10 7 36 -11 36 -26 1
-13 8 -14 37 -3 14 6 16 1 13 -24 -3 -26 -2 -29 9 -18 8 6 11 16 8 21 -3 5 0
6 7 2 9 -6 9 -11 -1 -24 -11 -13 -9 -15 17 -9 17 3 24 4 18 1 -17 -8 -16 -27
1 -21 7 3 20 -3 29 -13 13 -16 14 -19 1 -24 -8 -3 -13 -2 -10 3 6 10 -24 25
-32 16 -3 -3 -1 -5 5 -5 6 0 13 -10 17 -23 4 -13 9 -18 13 -11 12 16 43 25 40
11 -1 -7 3 -11 10 -10 7 2 10 -4 6 -12 -5 -14 -7 -14 -17 1 -11 14 -13 14 -27
-3 -13 -16 -12 -17 2 -5 14 10 18 10 23 -3 3 -9 10 -14 15 -10 5 3 13 1 16 -5
4 -6 16 -8 28 -5 12 2 16 2 9 -1 -6 -3 -9 -11 -6 -16 4 -6 2 -8 -3 -5 -6 4
-13 1 -16 -7 -5 -13 -1 -13 28 0 25 10 36 11 41 2 4 -6 3 -8 -3 -5 -6 4 -17
-1 -24 -11 -13 -15 -12 -16 4 -3 9 7 17 10 17 6 0 -4 7 -1 17 6 9 8 18 13 20
12 1 -2 4 -3 6 -2 19 6 36 6 32 -1 -6 -10 16 -19 33 -13 6 3 12 9 12 15 0 7
-4 7 -13 0 -10 -8 -13 -6 -13 7 0 19 18 18 43 -1 7 -6 14 -4 19 3 5 8 3 9 -6
4 -8 -5 -11 -3 -8 6 3 8 10 13 16 12 6 -2 9 4 5 13 -4 12 -8 13 -14 3 -11 -18
-39 -20 -32 -2 4 10 8 11 13 3 5 -8 9 -6 14 5 5 14 9 15 20 6 10 -8 16 -9 21
-1 3 6 10 8 14 6 8 -5 9 2 12 50 1 14 4 22 8 18 14 -20 37 -11 36 15 0 19 5
26 20 27 11 0 25 -2 30 -5 6 -3 3 1 -7 10 -15 15 -16 18 -2 23 8 3 13 2 10 -3
-3 -5 0 -11 8 -14 10 -4 12 0 9 14 -3 10 -9 19 -14 19 -5 0 -1 8 9 18 21 23
30 19 11 -5 -13 -15 -12 -16 6 -9 11 5 25 9 32 9 7 0 12 3 11 6 -2 19 4 24 13
11 9 -13 10 -13 6 1 -3 9 4 24 16 34 19 17 19 19 3 30 -11 8 -13 15 -7 20 6 3
11 1 11 -4 0 -6 9 -11 20 -11 11 0 20 5 20 11 0 5 -5 7 -12 3 -7 -5 -8 -3 -4
5 5 7 15 10 23 7 9 -4 13 -1 10 6 -2 7 -11 12 -18 10 -9 -2 -7 4 5 17 13 15
15 21 6 21 -7 0 -10 3 -7 7 4 3 15 -1 24 -9 19 -16 56 -21 47 -6 -3 5 -10 5
-16 2 -10 -7 -28 13 -28 31 1 6 5 2 11 -8 10 -18 12 -18 31 -1 17 16 19 29 17
106 -2 48 -7 88 -12 88 -5 0 -3 8 4 18 12 15 12 16 -2 5 -19 -15 -33 -5 -19
12 7 8 5 12 -5 12 -8 0 -12 -4 -9 -8 2 -4 -4 -13 -15 -18 -24 -13 -42 -14 -22
-2 15 9 25 42 13 39 -4 -1 -17 3 -28 10 -12 6 -23 9 -26 7 -5 -5 -7 5 -10 50
-2 19 -5 22 -15 13 -9 -7 -10 -14 -3 -23 7 -8 6 -12 -3 -12 -15 0 -19 26 -6
42 5 7 -6 10 -31 9 -21 0 -39 2 -38 5 2 20 -4 30 -19 34 -17 4 -17 5 0 6 10 0
20 -6 23 -14 4 -8 10 -13 14 -10 5 3 11 1 15 -5 3 -5 12 -10 18 -10 7 0 -8 14
-33 30 -28 19 -52 28 -65 24 -15 -4 -17 -3 -6 5 13 8 13 12 0 27 -9 11 -9 15
-1 10 6 -4 12 -2 12 3 0 6 -4 11 -9 11 -5 0 -11 9 -14 21 -3 12 -10 18 -16 14
-6 -3 -15 5 -21 19 -11 30 -16 32 -24 10 -4 -10 -2 -13 6 -8 7 4 8 3 4 -4 -4
-7 -2 -12 3 -12 6 0 10 -3 10 -7 -3 -20 2 -24 15 -14 11 9 15 7 19 -9 3 -11 1
-20 -4 -20 -5 0 -9 4 -9 9 0 6 -10 8 -21 6 -12 -3 -19 -2 -16 2 9 9 -13 44
-23 38 -11 -7 -2 23 14 45 9 13 9 13 -5 2 -13 -10 -18 -10 -28 1 -6 8 -8 17
-4 20 3 4 1 7 -6 7 -7 0 -9 5 -5 13 6 10 4 10 -7 0 -16 -15 -43 -17 -34 -3 3
6 -1 10 -10 10 -10 0 -14 5 -10 13 4 6 -3 1 -16 -13 l-22 -25 8 25 8 25 -23
-20 -23 -20 12 22 c13 26 15 44 2 24 -5 -8 -15 -16 -23 -17 -7 -1 -22 -6 -32
-10 -14 -5 -17 -4 -12 5 5 7 -8 2 -27 -11 -23 -15 -31 -25 -24 -30 7 -4 16 -3
21 2 13 13 26 13 26 0 0 -5 -6 -9 -12 -7 -7 1 -12 -6 -11 -17 1 -12 -2 -15 -9
-8 -6 6 -17 8 -26 5 -10 -4 -13 -2 -8 5 4 7 2 12 -3 12 -14 0 -14 -13 0 -27 8
-8 7 -13 -2 -18 -7 -5 -10 -4 -6 2 4 6 0 13 -8 17 -17 6 -23 -2 -20 -31 1 -12
-2 -20 -7 -17 -4 3 -8 -3 -9 -13 0 -14 -2 -13 -10 5 -7 19 -29 23 -29 6 0 -3
5 -2 10 1 15 9 11 -27 -5 -49 -18 -24 -20 -13 -3 17 10 19 9 20 -4 10 -8 -7
-17 -11 -19 -9 -2 3 -4 -12 -4 -32 0 -34 -2 -37 -32 -40 -25 -2 -31 -7 -26
-19 4 -10 2 -14 -4 -10 -18 11 -64 16 -58 6 4 -5 10 -7 14 -5 4 3 13 0 21 -5
11 -7 6 -8 -15 -3 -16 3 -43 7 -60 7 -16 1 -36 8 -44 15 -7 7 -19 11 -25 9 -7
-3 -20 1 -31 9 -10 8 -13 14 -7 14 8 0 7 9 -5 27 -10 15 -12 24 -5 19 10 -6
11 -2 7 17 -4 14 -2 28 3 31 6 3 8 -3 6 -16 -4 -21 -4 -21 5 -3 4 11 7 27 6
36 -2 10 7 27 21 40 17 16 21 26 13 35 -7 8 -6 14 2 20 7 4 9 3 6 -3 -4 -6 0
-13 8 -16 10 -4 12 -1 8 10 -5 12 -3 14 8 8 11 -6 12 -5 2 6 -18 19 -16 26 9
32 17 5 19 9 9 21 -10 12 -9 14 3 12 28 -4 28 -13 0 -35 -15 -11 -22 -21 -17
-21 21 0 54 42 48 61 -5 15 -3 18 12 12 10 -4 21 -11 24 -16 4 -5 6 4 6 19 0
16 -2 23 -4 17 -3 -7 -9 -13 -15 -13 -6 0 -6 6 2 15 7 8 16 13 20 10 5 -3 11
-1 15 5 4 6 11 8 16 5 5 -3 6 1 3 10 -5 12 -9 13 -20 4 -8 -7 -17 -9 -21 -5
-3 3 -1 6 6 6 7 0 10 4 7 9 -3 4 4 8 16 7 12 0 23 5 26 13 3 10 0 11 -9 5 -12
-7 -12 -5 0 9 7 9 19 17 25 17 8 0 7 -3 -1 -8 -8 -5 -9 -13 -3 -22 8 -13 10
-12 10 2 0 10 6 16 13 14 6 -1 9 -1 4 1 -4 3 -4 10 -1 15 4 7 2 8 -4 4 -7 -4
-12 -2 -12 4 0 6 -5 8 -12 4 -7 -4 -8 -3 -4 5 4 6 11 9 16 6 4 -3 13 2 20 10
11 13 10 14 -3 9 -12 -4 -14 -1 -10 15 5 18 8 19 22 9 10 -8 10 -5 -3 10 -21
24 -31 29 -20 10 4 -7 3 -9 -1 -5 -5 4 -10 14 -11 22 -2 16 16 16 29 0 5 -6 7
-4 4 5 -2 8 -10 14 -16 12 -7 -1 -11 4 -9 12 2 8 -1 14 -7 13 -5 -1 -9 -5 -7
-9 1 -5 -2 -8 -7 -8 -11 0 -25 30 -22 48 1 6 -4 12 -11 12 -9 0 -9 3 2 11 12
8 11 9 -6 4 -17 -4 -22 -1 -20 11 0 9 -6 19 -14 21 -13 4 -13 3 0 -7 13 -10
13 -11 0 -7 -8 2 -14 10 -12 16 2 11 -10 15 -38 11 -10 -1 -9 3 5 13 15 11 22
12 28 4 6 -8 7 -7 4 3 -5 16 -10 16 -40 5 -10 -4 -17 -4 -16 1 4 22 -2 45 -10
40 -10 -6 -24 21 -17 33 3 4 -4 8 -15 8 -17 2 -18 0 -4 -13 19 -19 19 -21 0
-21 -8 0 -12 4 -9 8 2 5 -7 14 -22 22 -22 12 -24 15 -10 20 10 4 15 3 11 -3
-3 -6 -1 -10 4 -10 6 0 11 5 11 11 0 5 4 8 9 4 5 -3 12 -2 15 3 6 11 -55 9
-74 -2 -8 -5 -12 -6 -8 -1 4 4 1 20 -8 36 -13 27 -13 29 3 30 13 0 14 2 4 6
-8 3 -21 -3 -29 -13 -14 -18 -14 -18 -7 1 17 48 15 53 -20 51 -29 -1 -32 1
-23 17 5 10 7 21 4 25 -3 3 -6 0 -6 -7 0 -7 -5 -9 -12 -5 -7 5 -8 3 -3 -5 6
-10 3 -11 -12 -2 -11 6 -24 7 -28 3 -5 -4 -4 -1 0 7 6 11 4 13 -11 8 -16 -6
-17 -5 -4 5 8 7 16 20 16 29 1 14 -13 17 -97 18 -61 1 -99 -2 -99 -8z m-66
-105 c-10 -8 -21 -12 -24 -10 -5 6 21 24 34 24 6 0 1 -6 -10 -14z m360 5 c3
-5 0 -14 -7 -19 -10 -8 -13 -6 -14 9 -2 19 11 26 21 10z m-384 -48 c0 -15 -2
-16 -10 -3 -8 13 -10 12 -10 -4 0 -11 -3 -17 -6 -13 -9 9 3 37 16 37 5 0 10
-8 10 -17z m-82 -57 c-1 -14 -6 -22 -10 -20 -4 3 -8 0 -8 -7 0 -7 -3 -10 -6
-6 -3 3 -2 12 2 19 5 7 9 16 10 21 3 15 4 17 9 17 3 0 4 -11 3 -24z m720 -201
c-3 -3 -9 2 -12 12 -6 14 -5 15 5 6 7 -7 10 -15 7 -18z m-808 -299 c0 -3 -4
-8 -10 -11 -5 -3 -10 -1 -10 4 0 6 5 11 10 11 6 0 10 -2 10 -4z m-486 -92 c5
-14 4 -15 -9 -4 -17 14 -19 20 -6 20 5 0 12 -7 15 -16z m593 -9 c0 -8 -4 -12
-9 -9 -5 3 -6 10 -3 15 9 13 12 11 12 -6z m538 -25 c-14 -14 -22 -30 -18 -34
4 -4 -1 -4 -12 0 -11 5 -14 9 -7 12 7 2 10 8 7 13 -4 5 -1 17 5 26 9 15 10 14
4 -7 -6 -22 -5 -23 10 -11 9 8 15 20 12 27 -3 8 0 11 10 7 12 -5 10 -11 -11
-33z m631 -27 c-3 -4 -6 -1 -6 7 0 10 -4 10 -17 -1 -16 -13 -17 -12 -5 3 10
13 10 18 1 24 -7 4 -15 2 -17 -4 -2 -7 -8 -9 -13 -6 -6 3 -3 12 7 19 15 11 21
9 37 -12 11 -13 17 -27 13 -30z m-1571 28 c3 -5 2 -12 -3 -15 -5 -3 -9 1 -9 9
0 17 3 19 12 6z m1283 -66 c-3 -3 -9 2 -12 12 -6 14 -5 15 5 6 7 -7 10 -15 7
-18z m-41 -50 c0 -8 -4 -12 -9 -9 -5 3 -6 10 -3 15 9 13 12 11 12 -6z m-279
-81 c-1 -5 -9 -9 -16 -10 -10 -2 -11 1 -1 12 12 14 24 13 17 -2z m88 -16 c4
-7 2 -8 -5 -4 -6 4 -18 3 -25 -3 -9 -8 -13 -7 -13 2 0 16 34 20 43 5z m758
-66 c3 -5 -1 -9 -9 -9 -8 0 -12 4 -9 9 3 4 7 8 9 8 2 0 6 -4 9 -8z m65 -35 c8
-10 7 -14 -2 -14 -8 0 -14 6 -14 14 0 7 1 13 2 13 2 0 8 -6 14 -13z m54 -63
c-6 -17 -24 -19 -20 -1 1 6 -4 11 -12 9 -12 -3 -12 0 -1 13 15 18 42 2 33 -21z
m-1271 2 c7 4 8 2 4 -5 -9 -13 -26 -5 -25 12 0 9 2 8 6 -1 2 -6 10 -9 15 -6z
m-1232 -6 c0 -5 -5 -10 -11 -10 -5 0 -7 5 -4 10 3 6 8 10 11 10 2 0 4 -4 4
-10z m1381 -17 c13 -16 12 -17 -3 -4 -10 7 -18 15 -18 17 0 8 8 3 21 -13z
m-231 -18 c0 -12 -29 -3 -34 10 -4 13 -2 14 14 5 11 -6 20 -13 20 -15z m180
21 c0 -3 -4 -8 -10 -11 -5 -3 -10 -1 -10 4 0 6 5 11 10 11 6 0 10 -2 10 -4z
m-1370 -140 c0 -3 -4 -8 -10 -11 -5 -3 -10 -1 -10 4 0 6 5 11 10 11 6 0 10 -2
10 -4z m1003 -19 c-5 -8 -8 -8 -10 0 -2 6 -14 9 -26 7 -21 -4 -21 -4 -2 4 24
11 47 4 38 -11z m-983 -24 c0 -13 -3 -13 -15 -3 -8 7 -12 16 -9 21 8 13 24 1
24 -18z m1596 -8 c-1 -8 -7 -20 -13 -26 -9 -9 -11 -7 -8 7 2 11 4 22 4 27 1 4
5 7 10 7 5 0 8 -7 7 -15z m817 -78 c4 3 7 4 7 2 0 -3 -15 -20 -33 -37 -23 -22
-34 -28 -34 -17 0 8 2 13 5 11 2 -2 12 3 22 12 16 13 17 19 7 31 -10 14 -10
14 4 4 9 -7 19 -10 22 -6z m-646 -92 c1 -1 -7 -7 -19 -14 -11 -7 -17 -8 -14
-2 4 5 -4 17 -16 25 -12 9 -22 25 -23 36 -2 18 2 17 34 -12 20 -18 37 -33 38
-33z m-984 30 c4 -8 3 -16 -1 -19 -4 -3 -9 4 -9 15 -2 23 3 25 10 4z m-503
-71 c0 -8 -19 -13 -24 -6 -3 5 1 9 9 9 8 0 15 -2 15 -3z m1916 -79 c-3 -20
-26 -44 -26 -27 0 7 5 12 10 12 6 0 9 3 9 8 -2 11 1 22 5 22 2 0 3 -7 2 -15z
m-1569 -17 c-3 -8 -6 -5 -6 6 -1 11 2 17 5 13 3 -3 4 -12 1 -19z m1323 -28 c0
-5 -5 -10 -11 -10 -5 0 -7 5 -4 10 3 6 8 10 11 10 2 0 4 -4 4 -10z m-1470 -44
c0 -2 -7 -7 -16 -10 -8 -3 -12 -2 -9 4 6 10 25 14 25 6z"/>
<path d="M1751 1037 c2 -1 15 -11 29 -22 l25 -20 -19 23 c-11 12 -24 22 -29
22 -6 0 -8 -1 -6 -3z"/>
<path d="M1407 2583 c-6 -14 -2 -33 8 -34 5 0 11 4 13 10 2 6 -2 11 -10 11
-10 0 -9 3 2 10 9 6 10 10 3 10 -6 0 -14 -3 -16 -7z"/>
<path d="M1530 2440 c0 -5 5 -10 11 -10 5 0 7 -4 4 -10 -3 -6 1 -7 9 -4 13 5
13 8 1 20 -16 16 -25 18 -25 4z"/>
<path d="M900 2279 c0 -5 5 -7 10 -4 6 3 10 8 10 11 0 2 -4 4 -10 4 -5 0 -10
-5 -10 -11z"/>
<path d="M865 2250 c-19 -37 -19 -46 0 -30 9 7 13 15 11 18 -3 2 -1 13 5 23 5
11 7 19 5 19 -3 0 -12 -13 -21 -30z"/>
<path d="M1775 2180 c3 -5 8 -10 11 -10 2 0 4 5 4 10 0 6 -5 10 -11 10 -5 0
-7 -4 -4 -10z"/>
<path d="M780 2139 c0 -5 5 -7 10 -4 6 3 10 8 10 11 0 2 -4 4 -10 4 -5 0 -10
-5 -10 -11z"/>
<path d="M857 1916 c-7 -19 11 -32 24 -19 6 6 5 14 -4 22 -12 9 -16 8 -20 -3z"/>
<path d="M985 1810 c-8 -13 -1 -24 14 -19 6 3 7 10 2 18 -6 10 -10 10 -16 1z"/>
<path d="M1030 1710 c0 -5 5 -10 11 -10 5 0 7 5 4 10 -3 6 -8 10 -11 10 -2 0
-4 -4 -4 -10z"/>
<path d="M730 1685 c0 -8 2 -15 4 -15 2 0 6 7 10 15 3 8 1 15 -4 15 -6 0 -10
-7 -10 -15z"/>
<path d="M270 1666 c0 -2 7 -7 16 -10 8 -3 12 -2 9 4 -6 10 -25 14 -25 6z"/>
<path d="M1795 1646 c2 -16 -3 -30 -12 -35 -13 -7 -11 -8 9 -8 21 0 25 4 22
25 -1 13 -7 29 -12 34 -6 6 -8 0 -7 -16z"/>
<path d="M1565 1650 c-4 -6 -1 -18 7 -27 7 -9 12 -18 10 -20 -2 -3 -2 -7 1 -9
2 -3 7 4 10 15 3 11 0 19 -5 18 -6 -1 -13 4 -16 12 -3 9 0 11 8 6 9 -5 11 -4
6 3 -9 15 -13 15 -21 2z"/>
<path d="M2335 1651 c-3 -6 5 -15 17 -21 21 -10 21 -10 6 3 -10 8 -15 17 -11
20 3 4 4 7 0 7 -3 0 -8 -4 -12 -9z"/>
<path d="M797 1636 c-10 -8 -14 -16 -10 -19 5 -3 14 3 21 14 14 22 13 23 -11
5z"/>
<path d="M975 1600 c-3 -5 -1 -10 4 -10 6 0 11 5 11 10 0 6 -2 10 -4 10 -3 0
-8 -4 -11 -10z"/>
<path d="M1735 1601 c-3 -5 -2 -12 3 -15 5 -3 9 1 9 9 0 17 -3 19 -12 6z"/>
<path d="M142 1526 c7 -8 17 -12 22 -9 4 3 2 9 -5 14 -22 13 -31 11 -17 -5z"/>
<path d="M2488 1503 c6 -2 9 -10 6 -15 -4 -7 -2 -8 5 -4 13 9 5 26 -12 25 -9
0 -8 -2 1 -6z"/>
<path d="M1315 1359 c-3 -4 2 -6 10 -5 21 3 28 13 10 13 -9 0 -18 -4 -20 -8z"/>
<path d="M1479 1298 c0 -2 -2 -11 -4 -21 -3 -15 -1 -16 11 -6 7 6 11 15 8 20
-5 9 -13 12 -15 7z"/>
<path d="M1081 1263 c-11 -27 -10 -27 4 -8 9 11 24 19 33 17 15 -2 15 -1 2 7
-22 15 -26 14 -39 -16z"/>
<path d="M1066 1222 c-3 -5 1 -9 9 -9 8 0 12 4 9 9 -3 4 -7 8 -9 8 -2 0 -6 -4
-9 -8z"/>
<path d="M1560 1196 c7 -7 13 -7 20 0 6 6 3 10 -10 10 -13 0 -16 -4 -10 -10z"/>
<path d="M2585 1200 c-3 -5 -1 -10 4 -10 6 0 11 5 11 10 0 6 -2 10 -4 10 -3 0
-8 -4 -11 -10z"/>
<path d="M1007 1179 c7 -7 15 -10 18 -7 3 3 -2 9 -12 12 -14 6 -15 5 -6 -5z"/>
<path d="M2526 1171 c-3 -5 1 -11 9 -14 9 -4 12 -1 8 9 -6 16 -10 17 -17 5z"/>
<path d="M90 1130 c0 -5 5 -10 11 -10 5 0 7 5 4 10 -3 6 -8 10 -11 10 -2 0 -4
-4 -4 -10z"/>
<path d="M1642 1124 c-14 -16 -5 -18 17 -5 7 5 9 11 5 14 -5 3 -15 -1 -22 -9z"/>
<path d="M130 1101 c0 -7 -5 -9 -12 -5 -7 4 -8 3 -4 -4 4 -6 14 -8 23 -5 9 4
14 2 10 -3 -3 -6 -2 -16 2 -23 7 -10 9 -10 14 2 3 8 -3 23 -14 33 -12 11 -19
13 -19 5z"/>
<path d="M882 1070 c-9 -14 -9 -21 0 -26 6 -4 8 -3 4 4 -3 6 1 15 10 20 9 5
12 12 7 15 -5 3 -14 -3 -21 -13z"/>
<path d="M1308 1053 c7 -3 16 -2 19 1 4 3 -2 6 -13 5 -11 0 -14 -3 -6 -6z"/>
<path d="M1219 1036 c10 -12 9 -17 -6 -24 -10 -6 -22 -10 -26 -11 -4 0 -21
-13 -36 -30 -21 -22 -25 -34 -18 -47 6 -11 6 -15 -1 -10 -6 3 -13 2 -17 -4 -3
-5 -1 -10 5 -10 6 0 8 -5 4 -11 -4 -8 -9 -7 -15 2 -4 7 -4 18 1 24 5 6 5 17
-2 25 -8 12 -9 12 -4 -2 3 -12 -4 -23 -24 -35 -17 -9 -30 -21 -30 -26 0 -4 -5
-5 -12 -1 -7 5 -8 3 -2 -7 10 -16 15 -44 7 -35 -9 9 -44 -14 -38 -25 4 -5 -1
-9 -9 -9 -9 0 -16 -5 -16 -11 0 -5 -6 -7 -12 -3 -8 5 -7 0 2 -11 14 -17 14
-18 -6 -7 -18 9 -25 8 -38 -7 -15 -16 -15 -20 -2 -30 13 -11 15 -9 11 7 -3 20
16 25 32 8 4 -4 1 -6 -7 -4 -8 2 -14 -4 -15 -12 0 -8 -7 -15 -15 -15 -9 0 -14
-8 -12 -20 2 -16 1 -17 -7 -5 -9 12 -11 12 -17 -3 -3 -9 -10 -17 -16 -17 -5 0
-6 5 -3 10 3 6 1 10 -4 10 -6 0 -11 -5 -11 -11 0 -5 -4 -7 -10 -4 -6 3 -7 -1
-4 -9 3 -9 10 -13 15 -10 5 3 6 -1 4 -8 -3 -8 -15 -14 -26 -15 -18 -2 -19 0
-7 15 11 15 11 15 -3 5 -9 -7 -20 -9 -25 -5 -5 4 2 -6 16 -22 24 -28 24 -28 3
-17 -21 11 -27 8 -24 -11 0 -5 -4 -8 -10 -8 -5 0 -7 -5 -4 -11 4 -5 -1 -20
-12 -31 -18 -21 -18 -21 6 -8 13 6 21 7 17 2 -3 -6 -3 -12 1 -15 5 -2 3 -2 -4
-1 -15 4 -27 -13 -13 -18 5 -1 11 -16 12 -31 2 -22 7 -27 20 -24 10 3 16 1 13
-3 -3 -5 -2 -16 1 -25 6 -13 9 -14 16 -3 8 10 9 9 5 -4 -6 -18 15 -42 27 -31
4 4 4 0 1 -9 -4 -9 -13 -14 -21 -11 -8 3 -12 8 -10 12 2 3 -7 20 -21 36 -14
17 -22 25 -19 18 3 -6 0 -14 -6 -16 -8 -3 -6 -6 5 -6 10 -1 15 -6 12 -11 -4
-6 -1 -9 7 -8 7 2 12 -3 10 -10 -1 -7 5 -15 13 -18 8 -3 12 -10 9 -15 -3 -5 0
-8 8 -7 7 2 12 -3 10 -10 -1 -6 3 -11 10 -10 7 2 12 -4 13 -12 0 -8 6 -15 13
-15 14 0 33 -25 26 -36 -6 -10 24 -5 33 6 4 4 3 5 -4 1 -14 -8 -36 27 -25 39
4 5 1 5 -7 0 -10 -6 -12 -4 -6 5 6 9 4 11 -5 5 -9 -6 -11 -4 -6 4 12 18 46
-16 38 -37 -5 -15 -4 -15 14 -2 10 8 16 11 12 6 -7 -8 14 -36 27 -36 11 0 44
-44 45 -57 0 -7 -4 -13 -10 -13 -5 0 -7 8 -4 18 5 14 4 15 -5 2 -6 -8 -11 -10
-11 -4 0 7 -6 14 -13 17 -8 3 -14 -1 -14 -8 0 -8 5 -13 11 -12 6 1 10 -3 9 -8
-2 -15 47 -17 63 -4 10 9 14 9 14 0 0 -6 -4 -11 -9 -11 -5 0 -8 -12 -8 -27 0
-16 2 -22 4 -15 3 6 10 9 16 5 7 -4 5 2 -3 13 -14 17 -13 18 1 7 9 -7 20 -9
24 -5 5 4 1 -5 -8 -21 -12 -19 -14 -26 -5 -25 7 2 12 -4 10 -12 -2 -8 0 -12 4
-8 4 4 13 3 21 -4 11 -8 17 -8 26 2 10 10 8 12 -6 7 -12 -5 -16 -3 -11 5 4 6
3 8 -3 5 -6 -4 -16 0 -22 7 -9 10 -9 16 -1 21 6 4 9 3 8 -2 -2 -4 2 -10 7 -11
36 -13 45 -23 35 -42 -15 -29 -12 -37 6 -12 8 12 21 22 27 21 9 0 9 -2 0 -6
-7 -2 -13 -9 -13 -14 0 -6 4 -7 10 -4 6 3 7 -1 3 -10 -5 -14 -8 -14 -15 -3 -7
9 -8 8 -4 -5 3 -10 6 -23 6 -28 0 -12 214 -9 232 3 7 4 8 8 2 8 -5 0 -19 7
-30 15 -10 8 -14 15 -9 14 23 -3 27 2 14 18 -12 14 -12 15 0 9 8 -5 17 -3 22
5 7 11 9 11 9 1 0 -7 5 -10 10 -7 6 4 7 12 4 18 -5 9 -4 9 6 0 15 -14 3 -36
-17 -29 -8 3 -11 1 -8 -4 3 -6 1 -10 -4 -10 -6 0 -11 -4 -11 -8 0 -5 7 -9 15
-9 8 0 13 2 11 4 -2 3 6 14 18 27 16 17 25 20 36 12 13 -9 13 -8 3 5 -14 18
-8 30 12 23 7 -3 16 -1 20 5 3 7 0 8 -9 5 -9 -3 -16 -1 -16 5 0 6 7 11 16 11
14 0 14 1 0 16 -20 19 -20 21 -1 21 8 0 15 -4 15 -8 0 -5 10 -13 23 -19 19 -9
20 -9 6 2 -23 19 -30 45 -14 58 10 8 15 8 21 -1 4 -7 3 -9 -4 -5 -6 3 -13 2
-17 -4 -4 -6 4 -9 19 -8 20 2 23 5 15 20 -5 10 -6 18 -2 18 4 0 1 5 -7 11 -12
9 -12 10 4 5 13 -4 17 -2 13 7 -3 8 1 14 9 14 7 0 11 -3 9 -7 -2 -4 8 -12 23
-19 22 -9 24 -9 12 1 -19 16 -26 43 -8 32 20 -13 38 -13 38 -2 0 6 -7 8 -15 4
-10 -4 -14 0 -12 14 2 11 7 23 12 27 4 5 6 3 2 -2 -3 -6 4 -17 16 -25 20 -12
21 -11 9 2 -10 13 -10 17 2 21 8 3 17 3 19 -1 2 -4 3 -2 1 5 -4 18 8 24 25 10
14 -11 14 -10 2 6 -12 16 -16 16 -31 2 -19 -17 -30 -19 -30 -6 0 5 9 11 21 14
13 4 18 10 14 17 -6 9 -2 9 14 1 11 -7 21 -10 22 -9 1 2 2 15 3 30 0 14 5 30
10 35 5 4 6 3 3 -3 -7 -12 21 -29 31 -19 3 3 0 5 -6 5 -19 0 -14 24 8 43 12
10 20 12 20 5 0 -6 3 -8 6 -5 4 4 1 14 -7 24 -12 15 -12 16 4 10 10 -4 21 -7
23 -7 3 0 2 -5 -2 -12 -5 -7 -3 -8 6 -3 11 7 10 10 -1 19 -16 12 -18 30 -6 42
4 4 -5 18 -20 30 -23 19 -26 25 -15 36 11 11 12 10 6 -6 -6 -15 -4 -17 6 -11
9 5 11 4 6 -3 -4 -7 -2 -12 4 -12 15 0 8 32 -10 46 -8 7 -21 10 -30 7 -8 -2
-4 3 10 11 16 10 19 15 10 16 -12 0 -12 2 -2 9 11 7 11 9 -2 14 -9 4 -23 4
-31 1 -9 -4 -15 0 -15 10 0 10 5 13 17 9 15 -6 16 -5 3 9 -8 9 -17 12 -18 7
-2 -5 -9 -6 -14 -3 -7 5 -8 2 -3 -5 6 -10 3 -11 -16 -1 -32 17 -37 22 -19 20
26 -4 40 0 40 10 0 6 -6 9 -12 8 -7 -2 -12 2 -11 9 2 8 -4 10 -14 6 -10 -4
-14 -2 -9 5 3 6 1 14 -5 18 -8 4 -9 3 -5 -4 4 -7 3 -12 -2 -12 -5 0 -14 12
-20 26 -10 20 -17 24 -35 18 -20 -6 -21 -5 -7 11 11 14 11 17 1 11 -10 -7 -12
-3 -6 15 4 17 4 20 -4 10 -10 -15 -45 -26 -36 -11 7 11 -20 31 -30 22 -5 -4
-5 -2 -1 5 3 6 2 14 -4 18 -6 4 -8 11 -4 16 6 10 27 2 20 -9 -2 -4 8 -18 21
-32 l24 -25 -21 38 c-27 46 -37 52 -55 37 -18 -15 -20 1 -2 19 10 10 9 12 -3
9 -8 -2 -14 3 -12 10 1 8 -2 11 -8 7 -7 -5 -8 -11 -1 -19 7 -8 6 -17 -1 -26
-8 -12 -9 -12 -4 2 3 10 1 20 -4 23 -5 3 -6 13 -3 22 4 11 3 14 -5 9 -7 -4
-12 -2 -12 3 0 6 -6 10 -12 8 -7 -1 -12 4 -11 11 2 6 -3 12 -10 12 -8 0 -7 4
3 11 12 8 10 9 -7 4 -12 -3 -24 -1 -28 5 -3 6 -11 7 -17 4 -6 -4 -8 -2 -5 3 9
14 -14 31 -36 28 -9 -2 -15 1 -12 5 3 5 -3 8 -12 8 -10 0 -27 3 -38 7 -20 8
-20 8 0 -11 12 -10 15 -15 8 -10 -7 4 -19 6 -28 3 -8 -4 -21 0 -29 8 -19 19
-32 19 -17 1z m31 -36 c0 -5 -2 -10 -4 -10 -3 0 -8 5 -11 10 -3 6 -1 10 4 10
6 0 11 -4 11 -10z m-33 -15 c4 -4 3 -5 -4 -1 -7 4 -17 -2 -23 -14 -6 -11 -15
-18 -20 -15 -5 3 -13 -3 -19 -12 -6 -10 -11 -14 -11 -10 0 4 9 21 21 36 21 28
40 34 56 16z m213 -31 c0 -2 -9 0 -20 6 -11 6 -20 13 -20 16 0 2 9 0 20 -6 11
-6 20 -13 20 -16z m-330 -89 c0 -5 -5 -3 -11 5 -8 11 -12 12 -16 3 -2 -7 -9
-13 -15 -13 -6 0 -3 9 7 20 14 16 20 17 27 8 4 -7 8 -17 8 -23z m-80 -79 c0
-2 -7 -6 -15 -10 -8 -3 -15 -1 -15 4 0 6 7 10 15 10 8 0 15 -2 15 -4z m686
-82 c18 -15 18 -15 -2 -5 -12 6 -24 7 -28 4 -3 -3 -6 -1 -6 5 0 16 12 15 36
-4z m74 -74 c-12 -8 -12 -10 -1 -10 8 0 12 -2 9 -5 -3 -3 -13 -2 -22 1 -14 5
-15 9 -4 15 7 5 18 9 23 9 6 0 3 -5 -5 -10z m-50 -250 c0 -5 -5 -10 -11 -10
-5 0 -7 5 -4 10 3 6 8 10 11 10 2 0 4 -4 4 -10z m-842 -22 c-2 -7 3 -12 10
-10 6 1 12 -5 12 -15 0 -14 -2 -14 -20 2 -11 10 -17 22 -14 26 8 13 14 11 12
-3z m598 -244 c-10 -14 -20 -23 -24 -19 -4 3 0 10 8 15 8 6 11 10 7 10 -4 0
-2 6 5 14 20 22 23 9 4 -20z m-266 -94 c0 -5 -5 -10 -11 -10 -5 0 -7 5 -4 10
3 6 8 10 11 10 2 0 4 -4 4 -10z"/>
<path d="M1350 1039 c0 -5 5 -7 10 -4 6 3 10 8 10 11 0 2 -4 4 -10 4 -5 0 -10
-5 -10 -11z"/>
<path d="M1391 1037 c-8 -11 -7 -18 7 -31 15 -13 19 -13 19 -2 0 8 -3 15 -6
14 -19 -2 -24 4 -11 12 8 5 12 12 9 15 -4 3 -11 -1 -18 -8z"/>
<path d="M233 989 c-1 -11 2 -17 8 -14 5 4 9 0 9 -8 0 -8 7 -17 15 -21 13 -5
14 -2 3 17 -7 12 -11 25 -10 29 1 3 -4 8 -11 11 -8 3 -14 -3 -14 -14z"/>
<path d="M790 995 c-8 -9 -8 -15 -2 -15 6 0 19 -3 29 -6 17 -5 17 -5 0 6 -9 6
-15 15 -12 21 10 14 -1 11 -15 -6z"/>
<path d="M2396 994 c-5 -14 -4 -15 9 -4 17 14 19 20 6 20 -5 0 -12 -7 -15 -16z"/>
<path d="M1130 980 c-9 -6 -10 -10 -3 -10 6 0 15 5 18 10 8 12 4 12 -15 0z"/>
<path d="M1456 962 c-2 -4 4 -8 14 -8 10 0 16 4 14 8 -3 4 -9 8 -14 8 -5 0
-11 -4 -14 -8z"/>
<path d="M1800 960 c-9 -6 -10 -10 -3 -10 6 0 15 5 18 10 8 12 4 12 -15 0z"/>
<path d="M2313 945 c0 -8 4 -15 9 -15 4 0 8 7 8 15 0 8 -4 15 -8 15 -5 0 -9
-7 -9 -15z"/>
<path d="M256 927 c3 -10 9 -15 12 -12 3 3 0 11 -7 18 -10 9 -11 8 -5 -6z"/>
<path d="M2274 899 c-4 -7 -3 -9 4 -5 5 3 13 0 15 -6 4 -9 6 -10 6 -1 1 17
-16 25 -25 12z"/>
<path d="M1587 859 c7 -7 15 -10 18 -7 3 3 -2 9 -12 12 -14 6 -15 5 -6 -5z"/>
<path d="M1950 806 c0 -2 7 -7 16 -10 8 -3 12 -2 9 4 -6 10 -25 14 -25 6z"/>
<path d="M2080 770 l-25 -21 28 12 c15 7 27 16 27 21 0 11 -1 10 -30 -12z"/>
<path d="M896 719 c4 -8 -1 -9 -16 -4 -20 6 -21 5 -9 -8 10 -11 18 -12 27 -5
15 13 16 28 1 28 -5 0 -7 -5 -3 -11z"/>
<path d="M767 487 c-3 -7 1 -24 8 -38 14 -24 14 -24 12 -1 -1 12 -5 22 -9 22
-4 0 -5 7 -2 15 4 8 4 15 1 15 -3 0 -7 -6 -10 -13z"/>
<path d="M1785 410 c-3 -6 1 -7 9 -4 18 7 21 14 7 14 -6 0 -13 -4 -16 -10z"/>
<path d="M970 253 c0 -4 14 -16 30 -25 39 -22 39 -15 0 12 -16 12 -30 18 -30
13z"/>
<path d="M1586 221 c-3 -5 1 -14 8 -20 16 -13 32 2 21 19 -8 12 -22 13 -29 1z
m24 -11 c0 -5 -2 -10 -4 -10 -3 0 -8 5 -11 10 -3 6 -1 10 4 10 6 0 11 -4 11
-10z"/>
<path d="M1558 163 c7 -3 16 -2 19 1 4 3 -2 6 -13 5 -11 0 -14 -3 -6 -6z"/>
</g>
</svg>
